<svg xmlns="http://www.w3.org/2000/svg" xmlns:xlink="http://www.w3.org/1999/xlink" width="17" height="17" viewBox="0 0 17 17" fill="none"><path fill-rule="evenodd" clip-rule="evenodd" d="M16.887 10.669c0 2.164-1.8 3.918-4.02 3.918h-8.58c-1.85 0-3.35-1.462-3.35-3.265 0-1.803 1.196-3.266 3.049-3.266a4.17 4.17 0 01-.12-.991c0-2.344 2.254-4.243 4.659-4.243 2.297 0 4.64 1.761 4.805 3.958 2.22 0 3.557 1.726 3.557 3.889zm-10.86-4.43a.251.251 0 00-.28-.057.262.262 0 00-.157.242v2.332c0 .145.114.262.255.262h2.28a.256.256 0 00.236-.161.266.266 0 00-.055-.286l-.68-.696a.133.133 0 01.006-.19c.389-.354.89-.55 1.411-.551 1.014 0 1.892.717 2.118 1.728.225 1.011-.263 2.047-1.176 2.497a2.14 2.14 0 01-2.64-.617.506.506 0 00-.878.135.533.533 0 00.079.52 3.15 3.15 0 003.432 1.085c1.253-.393 2.144-1.53 2.248-2.867.103-1.338-.604-2.604-1.781-3.193a3.137 3.137 0 00-3.556.522.125.125 0 01-.177-.003l-.686-.702z" fill="#3B4E66"></path></svg>