<svg xmlns="http://www.w3.org/2000/svg" xmlns:xlink="http://www.w3.org/1999/xlink" width="24" height="24" viewBox="0 0 24 24" fill="none" style="min-width: 24px;"><path opacity="0.5" fill-rule="evenodd" clip-rule="evenodd" d="M18.721 8.026l.307.093a6.5 6.5 0 012.64 1.548C23.08 10.965 24 12.856 24 14.652c0 2.787-2.21 4.343-4.972 3.501l-8.287-2.527c-2.824-.86-5.157-3.864-5.157-6.775 0-2.91 2.333-4.49 5.157-3.63.552-1.504 2.087-2.213 3.928-1.651 1.965.599 3.622 2.467 4.052 4.456z" fill="#BBE2F6"></path><path opacity="0.8" fill-rule="evenodd" clip-rule="evenodd" d="M16.182 9.521l.307.094a6.5 6.5 0 012.64 1.548c1.412 1.298 2.332 3.189 2.332 4.985 0 2.787-2.21 4.343-4.972 3.5l-8.287-2.526c-2.824-.861-5.157-3.864-5.157-6.775 0-2.91 2.333-4.491 5.157-3.63.552-1.504 2.087-2.213 3.928-1.652 1.965.6 3.622 2.467 4.052 4.456z" fill="#BBE2F6"></path><path fill-rule="evenodd" clip-rule="evenodd" d="M13.137 12.012l.307.094c.982.3 1.903.828 2.64 1.548 1.412 1.297 2.332 3.188 2.332 4.985 0 2.787-2.21 4.343-4.972 3.5l-8.287-2.526C2.333 18.752 0 15.749 0 12.838c0-2.911 2.333-4.492 5.157-3.63.552-1.504 2.087-2.213 3.928-1.652 1.965.6 3.622 2.467 4.052 4.456z" fill="#4EBDF5"></path><path d="M10.667 12.929a.712.712 0 00-.372-.248.385.385 0 00-.353.073l-2.592 2.07a.056.056 0 00-.019.03.085.085 0 000 .04.119.119 0 00.05.074c.35.237.648.58.844.97a.125.125 0 00.026.036.11.11 0 00.035.022c.012.005.025.007.036.005a.052.052 0 00.03-.014l2.367-2.275a.431.431 0 00.125-.356.772.772 0 00-.177-.427zM7.195 15.47c-.237-.169-.501-.243-.733-.206a.643.643 0 00-.506.403c-.044.107-.075.21-.105.305-.087.286-.127.416-.386.422a.24.24 0 00-.174.075.288.288 0 00-.072.19.478.478 0 00.058.233.56.56 0 00.166.192c.086.063.175.12.265.17.403.232.83.328 1.21.27.368-.044.665-.252.83-.58.09-.223.083-.502-.02-.778a1.53 1.53 0 00-.533-.696z" fill="#fff"></path></svg>