<svg xmlns="http://www.w3.org/2000/svg" xmlns:xlink="http://www.w3.org/1999/xlink" width="24" height="24" viewBox="0 0 24 24" fill="none"><path fill-rule="evenodd" clip-rule="evenodd" d="M24 12c0-6.627-5.373-12-12-12S0 5.373 0 12s5.373 12 12 12 12-5.373 12-12zM2 12C2 6.477 6.477 2 12 2s10 4.477 10 10-4.477 10-10 10a9.956 9.956 0 01-4.755-1.2c-1.047-.882.024-2.672.024-2.672s.142-2.68-2.2-2.68c-1.882 0-2.575-.742-2.776-1.034A10.023 10.023 0 012 12zm12.989-7.117c.156.02.323.069.5.145 0 0 .62.35.87.66.266.33.524.988.767 1.608.213.543.414 1.056.598 1.294.293.378.767.535 1.169.669.261.087.492.164.624.284.36.33.468.667.468.667l.015.124a.678.678 0 01-.124.41 3.581 3.581 0 01-.266.348c-.1.11-.222.23-.367.358a127.769 127.769 0 01-.815.71c-.107.09-.216.188-.33.292a.608.608 0 00-.208.373c-.018.139-.009.36.027.665.028.2.048.422.058.664.011.243-.01.5-.064.774a3.445 3.445 0 01-.314.877 4.514 4.514 0 01-.692.976c-.056.063-.113.161-.17.296a22.081 22.081 0 01-.516 1.215c-.132.287-.311.555-.538.805a2.793 2.793 0 01-1.001.675 3.463 3.463 0 01-1.288.228 1.02 1.02 0 01-.496-.125 1.1 1.1 0 01-.388-.363 1.597 1.597 0 01-.203-.369 3.32 3.32 0 01-.149-.493 9.306 9.306 0 01-.17-1.054 47.665 47.665 0 01-.117-1.23l-.064-.8c-.021-.27-.048-.54-.08-.81s-.07-.532-.117-.788a7.875 7.875 0 00-.165-.727c-.12-.464-.27-.827-.447-1.09-.178-.264-.387-.433-.629-.51a2.703 2.703 0 00-.82-.125c-.12.001-.237.006-.35.017-.114.01-.228.022-.342.036a5.908 5.908 0 01-.65.042l-.251-.014a1.718 1.718 0 01-.855-.329c-.306-.228-.568-.592-.788-1.09A3.437 3.437 0 016 8.823a4.316 4.316 0 01.214-1.459 4.6 4.6 0 01.724-1.386c.32-.419.699-.77 1.14-1.054.503-.325.954-.56 1.351-.706A3.316 3.316 0 0110.57 4a3.3 3.3 0 01.915.135c.313.09.668.239 1.065.446.256.132.483.215.682.25a3.139 3.139 0 00.73.046c.067-.003.132-.005.196-.005a4.52 4.52 0 01.415-.02c.121 0 .26.01.416.03z" fill="#7986CB"></path></svg>