<svg xmlns="http://www.w3.org/2000/svg" xmlns:xlink="http://www.w3.org/1999/xlink" width="26" height="26" viewBox="0 0 26 26" fill="none"><path opacity="0.5" fill-rule="evenodd" clip-rule="evenodd" d="M20.169 8.525l.327.099c1.048.318 2.03.88 2.816 1.646 1.506 1.381 2.488 3.394 2.488 5.306 0 2.968-2.357 4.626-5.304 3.732l-8.84-2.685c-3.011-.915-5.5-4.11-5.5-7.21 0-3.1 2.489-4.784 5.5-3.87.59-1.6 2.227-2.357 4.191-1.76 2.095.636 3.863 2.624 4.322 4.742z" fill="#9FEBF9"></path><path opacity="0.8" fill-rule="evenodd" clip-rule="evenodd" d="M17.46 10.115l.327.1c1.048.318 2.03.88 2.816 1.646 1.506 1.38 2.488 3.394 2.488 5.306 0 2.968-2.357 4.626-5.304 3.731l-8.84-2.684c-3.011-.915-5.5-4.11-5.5-7.21 0-3.1 2.489-4.784 5.5-3.87.59-1.6 2.227-2.357 4.192-1.76 2.095.636 3.863 2.624 4.321 4.741z" fill="#9FEBF9"></path><path fill-rule="evenodd" clip-rule="evenodd" d="M14.212 12.766l.328.1a6.93 6.93 0 012.815 1.646c1.506 1.38 2.488 3.394 2.488 5.306 0 2.968-2.357 4.626-5.303 3.731L5.7 20.865c-3.012-.915-5.5-4.11-5.5-7.21 0-3.1 2.488-4.784 5.5-3.87.59-1.601 2.226-2.357 4.19-1.76 2.096.636 3.864 2.624 4.322 4.741z" fill="#0CB6D6"></path><path fill-rule="evenodd" clip-rule="evenodd" d="M8.69 15.985l-2.504-1.912a.588.588 0 01-.233-.445c0-.162.092-.28.234-.3l2.502-.364c.199-.029.424.041.623.193l2.501 1.91a.588.588 0 01.234.446c0 .162-.092.28-.234.301l-2.503.363c-.198.028-.423-.042-.62-.192zm.422.7l2.502-.473c.127-.014.271.09.33.237s.012.287-.106.32l-2.502.474c-.212.04-.458-.037-.67-.208l-2.502-2.021a.4.4 0 01-.162-.276c-.01-.104.035-.188.116-.218s.185-.002.27.074l2.501 2.022a.28.28 0 00.223.07zm0 1.095l2.502-.474c.127-.013.271.09.33.237.06.147.013.287-.106.32l-2.502.474c-.212.04-.458-.036-.67-.207l-2.502-2.022c-.119-.107-.165-.276-.106-.386.059-.11.203-.125.33-.033l2.501 2.021c.07.057.153.083.223.07zm0 1.046l2.502-.473c.13-.025.284.08.346.235.062.154.007.3-.123.323l-2.501.474c-.212.04-.459-.036-.67-.208l-2.502-2.021c-.13-.105-.185-.284-.123-.4.062-.116.217-.125.346-.02l2.502 2.02a.28.28 0 00.223.07z" fill="#fff"></path></svg>