<svg xmlns="http://www.w3.org/2000/svg" width="38" height="38" viewBox="0 0 38 38" fill="none">
    <path opacity="0.275321" fill-rule="evenodd" clip-rule="evenodd" d="M10.8999 2.7443C10.8999 1.41017 12.219 0.4567 13.5219 0.849048L35.8097 7.56052C36.6598 7.81653 37.24 8.58525 37.24 9.45577V28.1102C37.24 29.4443 35.9209 30.3978 34.6179 30.0054L12.3302 23.2939C11.48 23.0379 10.8999 22.2692 10.8999 21.3987V2.7443Z" fill="#FFA200"/>
    <path opacity="0.676084" fill-rule="evenodd" clip-rule="evenodd" d="M5.82996 5.91703C5.82996 4.5829 7.14905 3.62943 8.45198 4.02178L30.7397 10.7332C31.5899 10.9893 32.17 11.758 32.17 12.6285V31.2829C32.17 32.617 30.8509 33.5705 29.548 33.1781L7.26025 26.4667C6.41009 26.2107 5.82996 25.4419 5.82996 24.5714V5.91703Z" fill="#FCA50D"/>
    <path fill-rule="evenodd" clip-rule="evenodd" d="M0.76001 9.88285C0.76001 8.54872 2.07911 7.59525 3.38203 7.9876L25.6698 14.6991C26.5199 14.9551 27.1001 15.7238 27.1001 16.5943V35.2557C27.1001 36.5878 25.7848 37.541 24.4829 37.1524L18.4889 35.3635L10.8908 33.1976L2.16457 30.4449C1.32745 30.1808 0.76001 29.4183 0.76001 28.5575V9.88285Z" fill="#FCA000"/>
    <path fill-rule="evenodd" clip-rule="evenodd" d="M4.72095 30.1017C4.72095 30.1017 6.0954 33.3413 5.31021 36.1871C4.52502 39.0328 11.1315 33.7053 9.96857 31.9035C8.80559 30.1017 4.72095 30.1017 4.72095 30.1017Z" fill="#FCA000"/>
    <path fill-rule="evenodd" clip-rule="evenodd" d="M18.3984 16.5484L20.2551 17.1175C20.4261 17.1699 20.5646 17.3508 20.5646 17.5215V19.376C20.5646 19.458 20.5322 19.5268 20.4742 19.5671L19.674 20.1211L19.9872 21.3354C20.0523 21.587 19.9769 21.8123 19.7938 21.9127C19.6108 22.0131 19.3535 21.9705 19.1343 21.8034L18.2332 21.1179L17.7839 21.429L18.0073 22.991C18.0394 23.213 17.9591 23.402 17.7951 23.4903C17.6311 23.5787 17.4069 23.5537 17.2027 23.4243L16.0064 22.6595L14.5754 23.6507C15.5082 25.9769 14.8449 28.1883 13.0003 28.902C11.1556 29.6158 8.65872 28.6272 7.0708 26.5544C5.48288 24.4817 5.25942 21.9192 6.54013 20.4694C7.82084 19.0195 10.2384 19.098 12.2812 20.6559L18.1793 16.5721C18.2374 16.5317 18.3162 16.5232 18.3984 16.5484ZM10.1672 26.0945C10.9875 26.0945 11.6525 25.4303 11.6525 24.6109C11.6525 23.7916 10.9875 23.1274 10.1672 23.1274C9.34688 23.1274 8.68187 23.7916 8.68187 24.6109C8.68187 25.4303 9.34688 26.0945 10.1672 26.0945Z" fill="white"/>
</svg>