<svg width="330" height="42" viewBox="0 0 330 42" fill="none" xmlns="http://www.w3.org/2000/svg">
    <path d="M0.773438 0.914062H11.9023V8.48828H0.773438V0.914062ZM0.773438 11.9609H11.9023V41H0.773438V11.9609ZM18.2813 11.9609H28.6446V16.6914C30.194 14.7591 31.7618 13.3828 33.3477 12.5625C34.9336 11.724 36.8659 11.3047 39.1446 11.3047C42.2253 11.3047 44.6315 12.2253 46.3633 14.0664C48.1133 15.8893 48.9883 18.7148 48.9883 22.543V41H37.8047V25.0312C37.8047 23.2083 37.4675 21.9232 36.793 21.1758C36.1185 20.4102 35.1706 20.0273 33.9493 20.0273C32.6003 20.0273 31.5065 20.5378 30.668 21.5586C29.8295 22.5794 29.4102 24.4115 29.4102 27.0547V41H18.2813V11.9609ZM67.2891 11.9609H72.5938V20.1094H67.2891V41H56.1329V20.1094H51.9766V11.9609H56.1329V10.6484C56.1329 9.46354 56.2605 8.16016 56.5157 6.73828C56.7709 5.31641 57.2449 4.15885 57.9376 3.26562C58.6485 2.35417 59.6329 1.625 60.8907 1.07812C62.1667 0.513021 64.0261 0.230469 66.4688 0.230469C68.4193 0.230469 71.254 0.458333 74.9727 0.914062L73.7423 7.64062C72.4115 7.42188 71.336 7.3125 70.5157 7.3125C69.5131 7.3125 68.793 7.48568 68.3555 7.83203C67.918 8.16016 67.6081 8.6888 67.4258 9.41797C67.3347 9.81901 67.2891 10.6667 67.2891 11.9609ZM74.6251 26.5625C74.6251 22.1328 76.1199 18.487 79.1095 15.625C82.0991 12.7448 86.1368 11.3047 91.2228 11.3047C97.0379 11.3047 101.431 12.9909 104.402 16.3633C106.79 19.0794 107.984 22.4245 107.984 26.3984C107.984 30.8646 106.499 34.5286 103.527 37.3906C100.574 40.2344 96.4819 41.6562 91.2501 41.6562C86.5834 41.6562 82.81 40.4714 79.9298 38.1016C76.3933 35.1667 74.6251 31.3203 74.6251 26.5625ZM85.7813 26.5352C85.7813 29.1237 86.3009 31.0378 87.3399 32.2773C88.3972 33.5169 89.7188 34.1367 91.3048 34.1367C92.909 34.1367 94.2215 33.526 95.2423 32.3047C96.2813 31.0833 96.8009 29.1237 96.8009 26.4258C96.8009 23.9102 96.2813 22.0417 95.2423 20.8203C94.2032 19.5807 92.9181 18.9609 91.3868 18.9609C89.7644 18.9609 88.4246 19.5898 87.3673 20.8477C86.31 22.0872 85.7813 23.9831 85.7813 26.5352ZM112.695 11.9609H123.086V16.1992C124.581 14.431 126.085 13.1732 127.598 12.4258C129.129 11.6784 130.97 11.3047 133.121 11.3047C135.436 11.3047 137.268 11.7148 138.617 12.5352C139.966 13.3555 141.069 14.5768 141.926 16.1992C143.676 14.3034 145.271 13.0182 146.711 12.3438C148.151 11.651 149.929 11.3047 152.043 11.3047C155.16 11.3047 157.594 12.2344 159.344 14.0938C161.094 15.9349 161.969 18.8242 161.969 22.7617V41H150.813V24.457C150.813 23.1445 150.557 22.1693 150.047 21.5312C149.3 20.5286 148.37 20.0273 147.258 20.0273C145.945 20.0273 144.888 20.5013 144.086 21.4492C143.284 22.3971 142.883 23.9193 142.883 26.0156V41H131.727V25.0039C131.727 23.7279 131.654 22.862 131.508 22.4062C131.271 21.6771 130.861 21.0938 130.277 20.6562C129.694 20.2005 129.011 19.9727 128.227 19.9727C126.951 19.9727 125.902 20.4557 125.082 21.4219C124.262 22.388 123.852 23.974 123.852 26.1797V41H112.695V11.9609ZM178.028 21.3672L167.391 20.2461C167.792 18.3867 168.366 16.9284 169.113 15.8711C169.879 14.7956 170.973 13.8659 172.395 13.082C173.416 12.5169 174.819 12.0794 176.606 11.7695C178.392 11.4596 180.324 11.3047 182.403 11.3047C185.738 11.3047 188.418 11.4961 190.442 11.8789C192.465 12.2435 194.151 13.0182 195.5 14.2031C196.448 15.0234 197.195 16.1901 197.742 17.7031C198.289 19.1979 198.563 20.6289 198.563 21.9961V34.8203C198.563 36.1875 198.645 37.263 198.809 38.0469C198.991 38.8125 199.374 39.7969 199.957 41H189.512C189.093 40.2526 188.819 39.6875 188.692 39.3047C188.564 38.9036 188.436 38.2839 188.309 37.4453C186.85 38.849 185.401 39.8516 183.961 40.4531C181.992 41.2552 179.705 41.6562 177.098 41.6562C173.634 41.6562 171 40.8542 169.195 39.25C167.409 37.6458 166.516 35.668 166.516 33.3164C166.516 31.1107 167.163 29.2969 168.457 27.875C169.751 26.4531 172.139 25.3958 175.621 24.7031C179.796 23.8646 182.503 23.2812 183.742 22.9531C184.982 22.6068 186.294 22.1602 187.68 21.6133C187.68 20.2461 187.397 19.2891 186.832 18.7422C186.267 18.1953 185.274 17.9219 183.852 17.9219C182.029 17.9219 180.662 18.2135 179.75 18.7969C179.039 19.2526 178.465 20.1094 178.028 21.3672ZM187.68 27.2188C186.149 27.7656 184.554 28.2487 182.895 28.668C180.634 29.2695 179.203 29.862 178.602 30.4453C177.982 31.0469 177.672 31.7305 177.672 32.4961C177.672 33.3711 177.973 34.0911 178.574 34.6562C179.194 35.2031 180.097 35.4766 181.281 35.4766C182.521 35.4766 183.669 35.1758 184.727 34.5742C185.802 33.9727 186.559 33.2435 186.996 32.3867C187.452 31.5117 187.68 30.3815 187.68 28.9961V27.2188ZM204.504 11.9609H214.867V16.6914C216.417 14.7591 217.985 13.3828 219.571 12.5625C221.156 11.724 223.089 11.3047 225.367 11.3047C228.448 11.3047 230.854 12.2253 232.586 14.0664C234.336 15.8893 235.211 18.7148 235.211 22.543V41H224.028V25.0312C224.028 23.2083 223.69 21.9232 223.016 21.1758C222.341 20.4102 221.393 20.0273 220.172 20.0273C218.823 20.0273 217.729 20.5378 216.891 21.5586C216.052 22.5794 215.633 24.4115 215.633 27.0547V41H204.504V11.9609ZM241.535 0.914062H252.664V8.48828H241.535V0.914062ZM241.535 11.9609H252.664V41H241.535V11.9609ZM269.188 21.3672L258.551 20.2461C258.952 18.3867 259.526 16.9284 260.274 15.8711C261.039 14.7956 262.133 13.8659 263.555 13.082C264.576 12.5169 265.979 12.0794 267.766 11.7695C269.552 11.4596 271.485 11.3047 273.563 11.3047C276.899 11.3047 279.578 11.4961 281.602 11.8789C283.625 12.2435 285.311 13.0182 286.66 14.2031C287.608 15.0234 288.356 16.1901 288.903 17.7031C289.449 19.1979 289.723 20.6289 289.723 21.9961V34.8203C289.723 36.1875 289.805 37.263 289.969 38.0469C290.151 38.8125 290.534 39.7969 291.117 41H280.672C280.253 40.2526 279.979 39.6875 279.852 39.3047C279.724 38.9036 279.597 38.2839 279.469 37.4453C278.011 38.849 276.561 39.8516 275.121 40.4531C273.153 41.2552 270.865 41.6562 268.258 41.6562C264.795 41.6562 262.16 40.8542 260.356 39.25C258.569 37.6458 257.676 35.668 257.676 33.3164C257.676 31.1107 258.323 29.2969 259.617 27.875C260.912 26.4531 263.3 25.3958 266.782 24.7031C270.956 23.8646 273.663 23.2812 274.903 22.9531C276.142 22.6068 277.455 22.1602 278.84 21.6133C278.84 20.2461 278.558 19.2891 277.992 18.7422C277.427 18.1953 276.434 17.9219 275.012 17.9219C273.189 17.9219 271.822 18.2135 270.91 18.7969C270.199 19.2526 269.625 20.1094 269.188 21.3672ZM278.84 27.2188C277.309 27.7656 275.714 28.2487 274.055 28.668C271.795 29.2695 270.364 29.862 269.762 30.4453C269.142 31.0469 268.832 31.7305 268.832 32.4961C268.832 33.3711 269.133 34.0911 269.735 34.6562C270.354 35.2031 271.257 35.4766 272.442 35.4766C273.681 35.4766 274.83 35.1758 275.887 34.5742C276.963 33.9727 277.719 33.2435 278.157 32.3867C278.612 31.5117 278.84 30.3815 278.84 28.9961V27.2188ZM295.664 0.914062H307.039V21.5859L315.352 11.9609H329.051L318.633 22.1328L329.653 41H317.102L311.223 29.3516L307.039 33.4531V41H295.664V0.914062Z"
          fill="white"/>
</svg>
