<svg xmlns="http://www.w3.org/2000/svg" width="36" height="42" viewBox="0 0 36 42" fill="none">
    <path opacity="0.289597" fill-rule="evenodd" clip-rule="evenodd" d="M10.1067 2.80791C10.1067 1.48477 11.3914 0.539154 12.6604 0.928271L34.367 7.58447C35.195 7.83837 35.76 8.60076 35.76 9.46411V27.9649C35.76 29.288 34.4753 30.2336 33.2064 29.8445L11.4997 23.1883C10.6717 22.9344 10.1067 22.172 10.1067 21.3087V2.80791Z" fill="#3DBD86"/>
    <path opacity="0.800316" fill-rule="evenodd" clip-rule="evenodd" d="M5.17334 5.95452C5.17334 4.63138 6.45804 3.68576 7.727 4.07488L29.4337 10.7311C30.2617 10.985 30.8267 11.7474 30.8267 12.6107V31.1115C30.8267 32.4346 29.542 33.3802 28.273 32.9911L6.56635 26.3349C5.73835 26.081 5.17334 25.3186 5.17334 24.4553V5.95452Z" fill="#83D5B1"/>
    <path fill-rule="evenodd" clip-rule="evenodd" d="M0.23999 9.88762C0.23999 8.56448 1.5247 7.61887 2.79365 8.00798L24.5003 14.6642C25.3283 14.9181 25.8933 15.6805 25.8933 16.5438V35.0515C25.8933 36.3726 24.6123 37.318 23.3444 36.9326L17.5067 35.1584V40.1747C17.5067 41.1285 16.281 41.5237 15.7203 40.7507L10.296 33.2714C10.173 33.1018 9.99889 32.9757 9.79903 32.9115L1.60793 30.2803C0.792633 30.0184 0.23999 29.2622 0.23999 28.4085V9.88762Z" fill="#3DBD86"/>
    <path fill-rule="evenodd" clip-rule="evenodd" d="M15.6532 18.7695C15.6532 18.3123 15.2766 17.8331 14.812 17.699L5.75496 15.0851C5.29034 14.9511 4.9137 15.2129 4.9137 15.6701V24.775C4.9137 25.2322 5.29034 25.7115 5.75496 25.8455L14.812 28.4594C15.2766 28.5935 15.6532 28.3316 15.6532 27.8744V26.0514L19.6892 29.3224C19.8002 29.4188 19.9321 29.45 20.0377 29.4051C20.1433 29.3602 20.2076 29.2455 20.2076 29.102V20.2385C20.2078 20.0949 20.1435 19.9429 20.0379 19.8369C19.9323 19.7308 19.8003 19.6858 19.6892 19.718L15.6532 20.8862V18.7695Z" fill="white"/>
</svg>