<svg xmlns="http://www.w3.org/2000/svg" xmlns:xlink="http://www.w3.org/1999/xlink" width="30" height="21" viewBox="0 0 30 21"><g fill="none" fill-rule="evenodd"><path d="M14.8 2.996c-1.49 0-2.77.871-3.34 2.124-.21.45-.32.94-.32 1.469 0 .264.03.528.09.773.1.421-.33.764-.74.597a5.415 5.415 0 00-2.07-.41c-.09 0-.17 0-.26.009-2.95.137-5.28 2.634-5.07 5.6.17 2.457 2.12 4.494 4.61 4.817 3.16.411 5.89-1.939 6.06-4.915 0-3.172 1.9-5.913 4.64-7.186-.35-1.645-1.83-2.878-3.6-2.878z"></path><path d="M21.88 5.09c-.18 0-.35.01-.53.02C20.67 2.183 17.99 0 14.8 0c-2.99 0-5.52 1.91-6.4 4.552-4.64 0-8.4 3.682-8.4 8.224C0 17.32 3.76 21 8.4 21h13.47c4.49 0 8.13-3.564 8.13-7.96 0-4.395-3.63-7.95-8.12-7.95zm-8.13 7.96c-.17 2.977-2.9 5.336-6.06 4.915-2.49-.323-4.44-2.36-4.61-4.817-.21-2.966 2.12-5.463 5.07-5.6.09 0 .17-.01.26-.01.73 0 1.43.147 2.07.412.41.166.83-.177.74-.598a3.34 3.34 0 01-.09-.773c0-.519.12-1.018.32-1.469a3.668 3.668 0 013.34-2.124c1.77 0 3.25 1.234 3.59 2.869-2.73 1.282-4.63 4.023-4.63 7.195zM26 15.087c0 .137-.08.274-.2.342l-3.73 2.095c-.02.01-.04.02-.07.03-.01 0-.02.01-.03.01-.03.01-.07.01-.1.01s-.07 0-.1-.01c-.01 0-.02-.01-.03-.01-.02-.01-.04-.01-.07-.03l-3.73-2.095a.385.385 0 01-.2-.342v-4.093c0-.039 0-.068.01-.107 0-.01.01-.02.01-.03.01-.02.02-.049.03-.068.01-.01.02-.02.02-.03.01-.02.02-.039.04-.049.01-.01.02-.02.04-.029.02-.01.03-.03.05-.039l3.73-2.095a.415.415 0 01.4 0l3.73 2.095c.02.01.03.02.05.04l.03.028c.01.01.03.03.04.05l.03.029.03.059c0 .01.01.02.02.039.01.03.01.068.01.107v4.093H26z" fill="#015C87" fill-rule="nonzero"></path><path fill="#015C87" fill-rule="nonzero" d="M18.55 11.68v3.172l2.92 1.645v-3.173l-1.82-1.018zM24.79 10.994L21.87 9.36l-2.91 1.635 2.91 1.645 1.52-.852zM22.28 16.497l2.91-1.645V11.68l-2.91 1.644z"></path></g></svg>