<svg xmlns="http://www.w3.org/2000/svg" xmlns:xlink="http://www.w3.org/1999/xlink" width="50" height="50" viewBox="0 0 50 50"><defs><path d="M2.732.84l23.222 7.146a2.111 2.111 0 011.49 2.018v19.86a2.111 2.111 0 01-2.732 2.018L1.49 24.736A2.111 2.111 0 010 22.72V2.859A2.111 2.111 0 012.732.84z" id="mail_svg__a"></path></defs><g fill="none" fill-rule="evenodd"><path d="M19.288 5.84l23.222 7.146A2.111 2.111 0 0144 15.004v19.86a2.111 2.111 0 01-2.732 2.018l-23.222-7.146a2.111 2.111 0 01-1.49-2.017V7.859a2.111 2.111 0 012.732-2.018z" fill="#FF9ABF" opacity="0.5"></path><path d="M14.01 9.218l23.222 7.146a2.111 2.111 0 011.49 2.017v19.86a2.111 2.111 0 01-2.732 2.018l-23.222-7.145a2.111 2.111 0 01-1.49-2.018v-19.86a2.111 2.111 0 012.732-2.018z" fill="#F789B2" opacity="0.8"></path><g transform="translate(6 12.6)"><mask id="mail_svg__b" fill="#fff"><use xlink:href="#mail_svg__a"></use></mask><use fill="#FF5B97" xlink:href="#mail_svg__a"></use><path d="M0 0l27.444 8.444-13.799 12.294a2.111 2.111 0 01-3.281-.61L0 0z" fill="#F2357A" mask="url(#mail_svg__b)" style="mix-blend-mode: multiply;"></path><path d="M0 0l27.444 8.444-13.799 12.294a2.111 2.111 0 01-3.281-.61L0 0z" fill="#F2357A" mask="url(#mail_svg__b)" style="mix-blend-mode: multiply;"></path></g></g></svg>