<svg xmlns="http://www.w3.org/2000/svg" width="38" height="42" viewBox="0 0 38 42" fill="none">
    <path opacity="0.5" fill-rule="evenodd" clip-rule="evenodd" d="M10.8933 2.84796C10.8933 1.49789 12.2127 0.533032 13.516 0.930068L35.8093 7.72172C36.6597 7.98078 37.24 8.75869 37.24 9.63961V31.5268C37.24 32.8769 35.9205 33.8417 34.6173 33.4447L12.324 26.653C11.4736 26.394 10.8933 25.6161 10.8933 24.7351V2.84796Z" fill="#5AC78A"/>
    <path opacity="0.8" fill-rule="evenodd" clip-rule="evenodd" d="M5.82666 6.66058C5.82666 5.31051 7.14609 4.34565 8.44934 4.74269L30.7427 11.5343C31.593 11.7934 32.1733 12.5713 32.1733 13.4522V35.3394C32.1733 36.6895 30.8539 37.6543 29.5506 37.2573L7.25732 30.4657C6.40694 30.2066 5.82666 29.4287 5.82666 28.5478V6.66058Z" fill="#4EC483"/>
    <path fill-rule="evenodd" clip-rule="evenodd" d="M0.76001 10.4731C0.76001 9.12301 2.07944 8.15815 3.38269 8.55519L25.676 15.3468C26.5264 15.6059 27.1067 16.3838 27.1067 17.2647V39.1519C27.1067 40.502 25.7872 41.4668 24.484 41.0698L2.19067 34.2782C1.34029 34.0191 0.76001 33.2412 0.76001 32.3603V10.4731Z" fill="#3BB471"/>
    <path fill-rule="evenodd" clip-rule="evenodd" d="M16.8105 17.9903C17.0005 18.1512 17.1566 18.3546 17.2603 18.576L21.2534 32.7519C21.5519 33.3896 21.3506 34.0162 20.8037 34.1513C20.6379 34.1923 20.452 34.1841 20.2631 34.1274L16.6383 33.0398L16.8105 28.0703L13.5319 32.1727L6.80043 30.0887C6.17735 29.9018 5.67224 29.244 5.67224 28.6194C5.67224 28.4456 5.71225 28.286 5.78916 28.1532L8.05956 22.5766C8.33578 22.0997 9.01246 22.0733 9.57097 22.5177C9.7928 22.6942 9.9724 22.9281 10.0821 23.1834L11.32 25.2697L15.2797 17.9819C15.5782 17.5233 16.2636 17.527 16.8105 17.9903Z" fill="white"/>
</svg>